<svg version="1" xmlns="http://www.w3.org/2000/svg" width="682.667" height="682.667" viewBox="0 0 512.000000 512.000000"><path d="M0 256v256h512V0H0v256zm210-147.3c34.8 5.6 62.9 25 78.2 54 4.2 7.9 11.4 27 10.6 27.8-.2.2-11.9 2.3-25.9 4.7l-25.7 4.4-1.7-5.6c-5.6-18.1-19.4-32-38.7-38.7-9.7-3.4-30.5-4.4-41.2-1.9-15.3 3.6-26.4 11.3-31.7 22.1-2.8 5.8-3.1 7.1-2.8 13.8.5 9 3.8 15.2 11.4 20.9 7.7 5.9 16.3 8.9 54.2 19.2 37.4 10.2 52 14.9 61.7 19.8 26.7 13.5 40.7 33.8 42.3 61.4 1.7 29.9-10.6 56.1-34.3 73-32 22.9-85.4 28.9-127.1 14.3-29.7-10.4-52.9-31.9-64-59.3-4.2-10.4-7-22.6-5.4-23.5.6-.4 11.4-2.2 23.9-4.1 12.5-1.8 23.2-3.5 23.8-3.7.7-.3 1.9 1.8 2.9 4.9 7.6 23.3 24.7 39.3 49.2 46 10.5 2.8 31.5 3 41.8.4 17.1-4.4 30.5-13.7 36.1-25.2 2.3-4.7 2.8-7 2.8-13.3 0-13.8-6.3-22.8-20.7-29.6-4-1.9-26.7-9.1-50.5-16s-45.6-13.5-48.5-14.6C95 245.8 78.5 221.7 80.3 186c.9-17.6 5.4-30.8 15-43.7 20.6-27.7 66.9-41.3 114.7-33.6zm245 16.7v19.4l-16.7.4c-14.4.3-17.4.7-21.3 2.5-9.5 4.4-12.7 10.5-13.7 25.8l-.6 10.5H455v38h-52v178h-48V222l-17.2-.2-17.3-.3-.3-18.8-.2-18.7h34.7l.6-13.8c.4-7.5 1.4-16.8 2.2-20.6 4.9-23.1 22.3-39 46.4-42.5 3.1-.5 15.8-.9 28.4-1l22.7-.1v19.4z"/></svg>