<svg xmlns="http://www.w3.org/2000/svg" width="100%" height="100%" viewBox="0 0 1081 307" fill="#fff"><path d="M121.804 305.235c.5-16.396-5.438-39.77-46.908-51.686l-20.338-6.467C37.9 242.373 36.2 234.146 36.2 229.664c0-10.212 9.404-17.134 22.095-17.134 14.4 0 22.095 7.943 22.095 19.403h36.258c0-32.793-24.814-52.423-57.843-52.423C26.06 179.5 0 200.162 0 230.685c0 15.432 6.458 37.56 44.2 49.2l20.622 5.73c17.393 4.993 20.848 11.687 20.622 19.403 0 .34 0 .68-.057 1.02h36.485c-.057-.283-.057-.5-.057-.794zm39.544-10.893c0-16.68 14.164-27.12 28.78-27.12 8.95 0 17.62 4.198 22.32 11.687l28.044-20.14c-11.16-15.66-29.8-24.623-50.365-24.623-33.255 0-63.055 23.602-63.055 60.14 0 4.03.397 7.943 1.077 11.688h35.748a27.77 27.77 0 0 1-2.55-11.63zm120.897-3.007c0-17.645 12.18-23.602 23.058-23.602 10.424 0 21.358 7.943 21.358 23.1v15.15h34.502v-16.397c0-35.062-15.863-55.43-46.4-55.43-10.934 0-27.817 6.24-32.52 20.652v-81.245H247.74V306.03h34.502v-14.694zm129.227 0c0-17.644 9.178-23.602 21.36-23.602 11.67 0 20.112 7.716 20.112 23.092v15.148h34.5v-22.637c0-33.077-16.372-49.2-42.433-49.2-13.653 0-27.307 7.716-33.482 19.404v-16.908h-34.502v69.33h34.502v-14.638h-.057zm108.66-77.273c11.67 0 21.075-8.964 21.075-20.368 0-11.46-9.404-20.14-21.075-20.14s-21.585 8.68-21.585 20.14c0 11.404 9.915 20.368 21.585 20.368zm17.168 22.58h-34.276v69.33H537.3v-69.33zm60.957 27.346h43.113v-27.346h-43.113v-44.48h-34.275v44.48h-21.075v27.346h21.075v42.04h34.275v-42.04z"/><path d="M677.968 263.988h24.305v-27.346h-24.305v-44.48h-34.275v44.48h-21.075v27.346h21.075v42.04h34.275v-42.04z"/><path d="M758.926 264h23.34v-27.347h-23.34V228.7c0-13.673 5.722-22.126 17.62-22.126h12.634v-33.077h-12.634c-33.255 0-52.347 19.63-52.347 55.203v7.943h-46.003V264H724.2v41.984h34.728V264zm142.144 31.317c0-36.538-26.288-61.16-59.316-61.16-33.256 0-60.563 23.602-60.563 60.14 0 4.03.34 7.943 1.02 11.688h118.405c.227-2.95.454-7.66.454-10.666zm-84.867-10.95c3.003-14.638 16.146-19.858 25.834-19.858s22.605 5.73 24.304 19.858h-50.138zm153.983.793l-19.602-5.22c-6.968-1.76-9.914-5.22-10.197-8.68-.227-5.22 4.702-8.68 12.18-8.68 5.44 0 12.917 1.475 13.144 10.212h32.518c-.226-28.3-24.587-38.523-47.645-38.523-24.304 0-44.926 15.886-45.152 33.076-.227 10.667 0 28.3 34.728 37.786l3.796 1.02h54.727c-3.683-7.83-11.67-16.396-28.497-20.992zm86.514-21.162h24.3v-27.346h-24.3v-44.48h-34.22v44.48h-21.13v27.346h21.13v42.04h34.22v-42.04zM625.28 18.155l36.314 42.098-36.314-42.098zm-125.827 143.54h44.416l27.25-48.508h-44.416l-27.25 48.508zm-107.926-36.197a5.75 5.75 0 0 1-5.722 5.731h-8.894v30.466h80.504l27.25-48.508h-83.393l-9.745 1.986v10.325zm280.888 36.197h49.062v-48.508h-21.812l-27.25 48.508z"/><path d="M585.96 161.695h44.36l27.25-48.508H613.2l-27.25 48.508zm-130.188-109.1L376.9 68.65l9.63 15.602v8.624c2.832.34 4.985 2.78 4.985 5.674v8.284h40.96l59.656-12.142-36.37-42.097zm41.246-8.34l36.315 42.098 43.5-8.85-36.314-42.098-43.5 8.85zm205.822 7.66l21.358-4.37L714.566 0l-48.042 9.758 36.315 42.154zm-77.56-33.758l-43.5 8.85 36.315 42.098 43.5-8.85-36.314-42.097zM391.528 120.222l18.356-7.035h-18.356v7.035zM376.855 68.65v24.17h4.93l-4.93-24.17z"/><path d="M385.805 92.82c.227 0 .5 0 .737.057l20.565-18.836-30.196-5.4v24.226h8.894v-.057z"/><path d="M440.477 68.65h-63.622v24.226h63.622V68.65zm15.863 62.578h-79.485v30.467h79.485v-30.467z"/></svg>
