<svg xmlns="http://www.w3.org/2000/svg" width="131" height="28" fill="#fff"><path d="M12.508 22.647c3.35 0 6.424-1.708 6.424-5.125 0-3.258-2.802-4.055-4.396-4.5l-2.938-.797c-1.094-.296-2.37-.752-2.37-1.982 0-1.276 1.435-2.12 3.075-2.073 1.686.023 3.2 1.002 3.554 2.734l2.96-.5c-.752-3.052-3.12-4.784-6.47-4.806S6.334 7.202 6.334 10.37c0 2.893 2.2 3.782 3.668 4.214l4.237 1.23c1.23.387 1.822.98 1.822 1.914 0 1.503-1.64 2.346-3.394 2.346-1.982 0-3.622-1.093-4.1-3.053l-2.87.433c.524 3.212 3.212 5.194 6.8 5.194zm13.787 0c2.734 0 4.715-1.4 5.467-3.895l-2.802-.615c-.433 1.253-1.207 1.936-2.665 1.936-2.073 0-3.12-1.572-3.12-3.918 0-2.255.957-3.918 3.12-3.918 1.253 0 2.323.774 2.734 2.096l2.734-.752c-.592-2.415-2.642-3.918-5.444-3.918-3.736 0-6.037 2.7-6.06 6.492.023 3.713 2.232 6.492 6.037 6.492zM40.057 9.662c-1.777 0-3.12.638-4 1.708V5.904h-2.46v16.4h2.78V15.97c0-2.984 1.48-3.736 2.87-3.736 2.642 0 2.893 2.62 2.893 4.146v5.923h2.78v-6.88c0-1.458-.32-5.763-4.852-5.763zm13.803 0c-1.777 0-3.12.638-4 1.708v-1.367H47.4v12.3h2.78V15.97c0-2.984 1.48-3.736 2.87-3.736 2.642 0 2.893 2.62 2.893 4.146v5.923h2.78v-6.88c0-1.458-.32-5.763-4.852-5.763zM61.446 8.1h2.734V5.585h-2.734V8.1zm0 14.215h2.734v-12.3h-2.734v12.3zm17.798-10.16h3.622v-2.14h-3.622V6.587H76.5v3.417h-5.763V6.587h-2.734v3.417H65.78v2.14h2.232v5.125c0 1.412-.1 2.46.478 3.53.957 1.754 3.44 1.982 5.877 1.503v-2.3c-1.55.228-2.825.228-3.37-.66-.296-.478-.25-1.253-.25-2.2v-5H76.5v5.125c0 1.412-.1 2.46.478 3.53.957 1.754 3.44 1.982 5.877 1.503V20c-1.55.228-2.825.228-3.37-.66-.296-.478-.25-1.253-.25-2.2v-5zm11.176-4.35h1.412V5.562h-1.526c-.9 0-2.346-.1-3.37 1.07-.843.934-.82 2.232-.82 3.166v.205h-1.982v2.14h1.982v10.16h2.756v-10.16h2.96v-2.14h-2.96v-.797c0-.843.478-1.412 1.55-1.412zm4.6 9.136h8.884c.32-4.442-1.913-7.267-5.717-7.267-3.622 0-6.128 2.597-6.128 6.63 0 3.736 2.55 6.355 6.264 6.355 2.392 0 4.5-1.276 5.445-3.508l-2.7-.82c-.524 1.14-1.526 1.754-2.87 1.754-1.868 0-2.96-1.116-3.166-3.144zm3.28-4.875c1.686 0 2.575.866 2.825 2.78H95.1c.32-1.822 1.367-2.78 3.212-2.78zm12.452 10.592c3.166 0 5.057-1.503 5.057-3.986 0-1.913-1.048-2.87-4-3.645-2.87-.73-3.35-.98-3.35-1.708 0-.82.866-1.32 2.142-1.276 1.344.1 2.186.73 2.323 1.754l2.802-.5c-.296-2.2-2.3-3.622-5.17-3.622-2.94 0-4.83 1.48-4.83 3.78 0 1.845 1.07 2.756 4.168 3.576 2.78.73 3.12.934 3.12 1.777 0 .9-.774 1.458-2.073 1.458-1.503 0-2.55-.73-2.824-1.96l-2.802.433c.4 2.483 2.392 3.918 5.444 3.918zM121.5 12.145h3.622v-2.14H121.5V6.587h-2.733v3.417h-2.233v2.14h2.233v5.125c0 1.412-.092 2.46.478 3.53.957 1.754 3.44 1.982 5.877 1.503v-2.3c-1.55.228-2.825.228-3.37-.66-.296-.478-.25-1.253-.25-2.2v-5zM7.12 2.373H2.373V7.12H0V0h7.12v2.373zm116.744 0h4.746V7.12h2.373V0h-7.12v2.373zm0 23.254h4.746V20.88h2.373V28h-7.12v-2.373zm-116.744 0H2.373V20.88H0V28h7.12v-2.373z"/></svg>